# xmcd CD database file
#
# Track frame offsets:
#	183
#	33433
#	61473
#	97830
#	116305
#	147118
#	172780
#	197873
#
# Disc length: 3017 seconds
#
# Revision: 2
# Processed by: cddbd v1.5.1PL2 Copyright (c) Steve Scherf et al.
# Submitted via: CDex 1.51
#
DISCID=600bc708
DTITLE=David Newton - Victim of Circumstance
DYEAR=1991
DGENRE=Jazz
TTITLE0=Wishful Thinking
TTITLE1=The Night we called it a Day
TTITLE2=Katy's Song
TTITLE3=It never entered my Mind
TTITLE4=Victim of Circumstance
TTITLE5=One and only
TTITLE6=Please come Home
TTITLE7=The Way you look Tonight
EXTD=YEAR: 1991
EXTT0=
EXTT1=
EXTT2=
EXTT3=
EXTT4=
EXTT5=
EXTT6=
EXTT7=
PLAYORDER=
